# AST/ASF file generated using VICON BodyLanguage
# -----------------------------------------------
:version 1.10
:name VICON
:units
  mass 1.0
  length 0.45
  angle deg
:documentation
   .ast/.asf automatically generated from VICON data using
   VICON BodyBuilder and BodyLanguage model FoxedUp or BRILLIANT.MOD
:root
   order TX TY TZ RX RY RZ
   axis XYZ
   position 0 0 0  
   orientation 0 0 0 
:bonedata
  begin
     id 1 
     name lhipjoint
     direction 0.523584 -0.783993 0.333487 
     length 2.44404 
     axis 0 0 0  XYZ
  end
  begin
     id 2 
     name lfemur
     direction 0.34202 -0.939693 0  
     length 7.29523  
     axis 0 0 20  XYZ
    dof rx ry rz
    limits (-160.0 20.0)
           (-70.0 70.0)
           (-60.0 70.0)
  end
  begin
     id 3 
     name ltibia
     direction 0.34215 -0.939645 0   
     length 7.81194   
     axis 0 0 20   XYZ
    dof rx
    limits (-10.0 170.0)
  end
  begin
     id 4 
     name lfoot
     direction 0.0941847 -0.25877 0.961336   
     length 2.41437   
     axis -90 7.62852e-016 20   XYZ
    dof rx rz
    limits (-45.0 90.0)
           (-70.0 20.0)
  end
  begin
     id 5 
     name ltoes
     direction 1.53526e-011 -4.21768e-011 1   
     length 1.2048   
     axis -90 7.62852e-016 20   XYZ
    dof rx
    limits (-90.0 20.0)
  end
  begin
     id 6 
     name rhipjoint
     direction -0.46599 -0.814191 0.346332   
     length 2.35339  
     axis 0 0 0  XYZ 
  end
  begin
     id 7 
     name rfemur
     direction -0.34202 -0.939693 0   
     length 7.34966   
     axis 0 0 -20   XYZ
    dof rx ry rz
    limits (-160.0 20.0)
           (-70.0 70.0)
           (-70.0 60.0)
  end
  begin
     id 8 
     name rtibia
     direction -0.34202 -0.939693 0   
     length 7.89934   
     axis 0 0 -20   XYZ
    dof rx
    limits (-10.0 170.0)
 end
 begin
     id 9 
     name rfoot
     direction -0.0975468 -0.268008 0.958466   
     length 2.27725  
     axis -90 -7.62852e-016 -20   XYZ
    dof rx rz
    limits (-45.0 90.0)
           (-20.0 70.0)
  end
  begin
     id 10 
     name rtoes
     direction -1.53563e-011 -4.22022e-011 1   
     length 1.13683   
     axis -90 -7.62852e-016 -20   XYZ
    dof rx
    limits (-90.0 20.0)
  end
  begin
     id 11 
     name lowerback
     direction -0.00456414 0.999242 -0.0386661   
     length 2.16968   
     axis 0 0 0   XYZ
    dof rx ry rz
    limits (-20.0 45.0)
           (-30.0 30.0)
           (-30.0 30.0)
  end
  begin
     id 12 
     name upperback
     direction 0.0297078 0.998988 0.0337799   
     length 2.15674   
     axis 0 0 0   XYZ
    dof rx ry rz
    limits (-20.0 45.0)
           (-30.0 30.0)
           (-30.0 30.0)
  end
  begin
     id 13 
     name thorax
     direction 0.0309305 0.998202 0.0513506   
     length 2.16319   
     axis 0 0 0   XYZ
    dof rx ry rz
    limits (-20.0 45.0)
           (-30.0 30.0)
           (-30.0 30.0)
  end
  begin
     id 14 
     name lowerneck
     direction -0.103039 0.983474 0.148872   
     length 1.64318   
     axis 0 0 0   XYZ
    dof rx ry rz
    limits (-20.0 45.0)
           (-30.0 30.0)
           (-30.0 30.0)
  end
  begin
     id 15 
     name upperneck
     direction 0.128124 0.971079 -0.201469   
     length 1.68242   
     axis 0 0 0   XYZ
    dof rx ry rz
    limits (-20.0 45.0)
           (-30.0 30.0)
           (-30.0 30.0)
  end
  begin
     id 16
     name head
     direction 0.0496365 0.994919 -0.0875941  
     length 1.70108  
     axis 0 0 0   XYZ
    dof rx ry rz
    limits (-20.0 45.0)
           (-30.0 30.0)
           (-30.0 30.0)
  end
  begin
     id 17 
     name lclavicle
     direction 0.887148 0.430222 -0.166967  
     length 3.25763  
     axis 0 0 0   XYZ
    dof ry rz
    limits (-20.0 10.0)
           (0.0 20.0)
  end
  begin
     id 18 
     name lhumerus
     direction 1 -4.48962e-011 1.92156e-027   
     length 5.10755   
     axis 180 -30 -90   XYZ
    dof rx ry rz
    limits (-60.0 90.0)
           (-90.0 90.0)
           (-90.0 90.0)
  end
  begin
     id 19
     name lradius
     direction 1 -4.48958e-011 7.10963e-027   
     length 3.36253   
     axis 180 -30 -90   XYZ
    dof rx
    limits (-10.0 170.0)
  end
  begin
     id 20
     name lwrist
     direction 1 -4.48946e-011 1.82396e-026   
     length 1.68127   
     axis -1.15222e-014 90 90   XYZ
    dof ry
    limits (-180.0 0.0)
 end
  begin
     id 21 
     name lhand
     direction 1 -4.48919e-011 3.64759e-026   
     length 0.619088   
     axis -2.32787e-014 90 90   XYZ
    dof rx rz
    limits (-90.0 90.0)
           (-45.0 45.0)
  end
  begin
     id 22 
     name lfingers
     direction 1 -4.49012e-011 7.29744e-026   
     length 0.499125   
     axis -4.6558e-014 90 90   XYZ
    dof rx
    limits (0.0 90.0)
  end
  begin
     id 23
     name lthumb
     direction 0.707107 -6.35028e-011 0.707107   
     length 0.716646   
     axis -90 45 3.78391e-014   XYZ
    dof rx rz
    limits (-45.0 45.0)
           (-45.0 45.0)
  end
  begin
     id 24 
     name rclavicle
     direction -0.82886 0.533198 -0.169384   
     length 3.20647  
     axis 0 0 0   XYZ 
    dof ry rz
    limits (-10.0 20.0)
           (-20.0 0.0)
  end
  begin
     id 25 
     name rhumerus
     direction -1 -4.48973e-011 3.06863e-027  
     length 5.27387   
     axis 180 30 90   XYZ
    dof rx ry rz
    limits (-90.0 60.0)
           (-90.0 90.0)
           (-90.0 90.0)
  end
  begin
     id 26 
     name rradius
     direction -1 -4.48988e-011 9.4797e-027   
     length 3.40144   
     axis 180 30 90   XYZ
    dof rx
    limits (-10.0 170.0)
  end
  begin
     id 27 
     name rwrist
     direction -1 -4.48897e-011 1.82366e-026   
     length 1.70072   
     axis -1.15222e-014 -90 -90   XYZ
    dof ry
    limits (-180.0 0.0)
  end
  begin
     id 28
     name rhand
     direction -1 -4.48965e-011 3.64815e-026   
     length 0.742821   
     axis -2.32787e-014 -90 -90   XYZ
    dof rx rz
    limits (-90.0 90.0)
           (-45.0 45.0)
  end
  begin
     id 29
     name rfingers
     direction -1 -4.49016e-011 7.29754e-026   
     length 0.598881   
     axis -4.6558e-014 -90 -90   XYZ
    dof rx
    limits (0.0 90.0)
  end
  begin
     id 30
     name rthumb
     direction -0.707107 -6.3488e-011 0.707107   
     length 0.859877   
     axis -90 -45 -3.78391e-014   XYZ
    dof rx rz
    limits (-45.0 45.0)
           (-45.0 45.0)
  end
:hierarchy
  begin
    root lhipjoint rhipjoint lowerback
    lhipjoint lfemur
    lfemur ltibia
    ltibia lfoot
    lfoot ltoes
    rhipjoint rfemur
    rfemur rtibia
    rtibia rfoot
    rfoot rtoes
    lowerback upperback
    upperback thorax
    thorax lowerneck lclavicle rclavicle
    lowerneck upperneck
    upperneck head
    lclavicle lhumerus
    lhumerus lradius
    lradius lwrist
    lwrist lhand lthumb
    lhand lfingers
    rclavicle rhumerus
    rhumerus rradius
    rradius rwrist
    rwrist rhand rthumb
    rhand rfingers
  end

#!OML:ASF F:\Work\Patient Classification 1\justin\Session 1\justin.ASF
:FULLY-SPECIFIED
:DEGREES
1391
root 0.058764 17.8592 -17.7712 177.626 -183.882 -180.046
lowerback 9.14647 1.34124 -3.97568
upperback 0.882691 1.49491 2.44683
thorax -4.38198 0.836318 4.60924
lowerneck -15.7847 -4.64786 -15.5363
upperneck 29.7394 -4.1195 6.56625
head 13.1169 -2.71303 4.57686
rclavicle -1.54804e-014 -7.55382e-015
rhumerus -27.9858 -1.53006 -85.0536
rradius 38.0646
rwrist -1.25364
rhand -24.6164 14.2943
rfingers 7.12502
rthumb 1.88201 -15.6771
lclavicle -1.54804e-014 -7.55382e-015
lhumerus -38.2667 11.6851 83.398
lradius 25.2378
lwrist -7.18751
lhand -8.18263 28.5314
lfingers 7.12502
lthumb 17.7331 57.7428
rfemur -6.67358 -0.524651 20.5727
rtibia 34.3633
rfoot -21.2416 -5.90598
rtoes -8.73844
lfemur -4.1998 1.60723 -20.0868
ltibia 29.9012
lfoot -18.2652 -7.15161
ltoes -10.4099
1392
root 0.0594825 17.8636 -17.7578 177.581 -184.117 -180.053
lowerback 9.11427 1.38444 -3.92701
upperback 0.824541 1.55634 2.40139
thorax -4.42902 0.867723 4.52543
lowerneck -15.8022 -4.72227 -15.5607
upperneck 29.9446 -4.23861 6.6234
head 13.2259 -2.76732 4.59186
rclavicle -4.09993e-015 1.59028e-015
rhumerus -28.1028 -1.22923 -85.269
rradius 38.5616
rwrist -1.75305
rhand -23.4092 13.3929
rfingers 7.12502
rthumb 3.0479 -16.5651
lclavicle -4.09993e-015 1.59028e-015
lhumerus -38.1074 11.9999 83.141
lradius 25.1126
lwrist -7.35446
lhand -8.43256 28.168
lfingers 7.12502
lthumb 17.4926 57.401
rfemur -6.46696 -0.654207 20.5621
rtibia 34.1772
rfoot -21.2331 -5.91079
rtoes -8.36442
lfemur -4.08176 1.47966 -20.0914
ltibia 29.8163
lfoot -18.2623 -7.17813
ltoes -10.5486
1393
root 0.0603861 17.8665 -17.7427 177.491 -184.119 -180.129
lowerback 9.0798 1.48991 -3.81623
upperback 0.729557 1.70727 2.36165
thorax -4.5211 0.943962 4.40013
lowerneck -15.5882 -4.86126 -15.6884
upperneck 30.0587 -4.47759 6.72971
head 13.27 -2.88012 4.62234
rclavicle -2.91468e-014 -3.18055e-015
rhumerus -28.5232 -0.92414 -85.5238
rradius 39.152
rwrist -2.17014
rhand -23.014 12.3251
rfingers 7.12502
rthumb 3.42959 -17.627
lclavicle -2.91468e-014 -3.18055e-015
lhumerus -38.2114 12.0735 82.944
lradius 25.3113
lwrist -7.19063
lhand -8.53164 28.5394
lfingers 7.12502
lthumb 17.3972 57.7808
rfemur -6.2876 -0.581804 20.6738
rtibia 34.0193
rfoot -21.1197 -6.19025
rtoes -9.59706
lfemur -3.88239 1.37659 -20.0268
ltibia 29.7278
lfoot -18.2425 -7.03975
ltoes -10.6163
1394
root 0.0643888 17.8691 -17.728 177.425 -184.142 -180.131
lowerback 9.07571 1.54471 -3.77314
upperback 0.613225 1.78362 2.33704
thorax -4.64669 0.985707 4.33866
lowerneck -15.4167 -4.94336 -15.8213
upperneck 30.1014 -4.59057 6.735
head 13.2742 -2.94816 4.63059
rclavicle 7.40473e-015 7.95139e-016
rhumerus -28.9333 -0.369356 -85.7909
rradius 39.5493
rwrist -2.35809
rhand -23.1905 12.4046
rfingers 7.12502
rthumb 3.25917 -17.5502
lclavicle 7.40473e-015 7.95139e-016
lhumerus -38.4973 12.1815 82.7848
lradius 25.6495
lwrist -6.89849
lhand -8.63201 28.9813
lfingers 7.12502
lthumb 17.3006 58.2313
rfemur -6.12062 -0.640154 20.6521
rtibia 33.875
rfoot -20.9808 -6.23186
rtoes -10.7149
lfemur -3.71035 1.24402 -20.0656
ltibia 29.6754
lfoot -18.2366 -6.8956
ltoes -10.6667
1395
root 0.0664479 17.8736 -17.7157 177.443 -184.193 -180.153
lowerback 8.93677 1.55027 -3.7579
upperback 0.623159 1.79837 2.36689
thorax -4.56046 0.991052 4.36176
lowerneck -15.62 -4.9795 -15.8981
upperneck 30.1253 -4.5538 6.64611
head 13.3252 -2.94988 4.6127
rclavicle 1.04362e-015 -1.31198e-014
rhumerus -28.9311 0.323119 -86.0157
rradius 39.7899
rwrist -2.44009
rhand -23.1887 13.619
rfingers 7.12502
rthumb 3.26089 -16.3359
lclavicle 1.04362e-015 -1.31198e-014
lhumerus -38.4449 12.6742 82.6067
lradius 25.779
lwrist -6.9235
lhand -9.07584 28.5269
lfingers 7.12502
lthumb 16.8734 57.8138
rfemur -6.01677 -0.669189 20.6395
rtibia 33.7611
rfoot -20.9637 -6.23015
rtoes -11.0168
lfemur -3.65193 1.13404 -20.0713
ltibia 29.6381
lfoot -18.2703 -6.80639
ltoes -10.781
1396
root 0.0652469 17.8751 -17.7074 177.439 -184.256 -180.174
lowerback 8.82783 1.56448 -3.76662
upperback 0.577166 1.82015 2.37278
thorax -4.55034 1.00285 4.37148
lowerneck -15.5938 -4.98405 -15.9782
upperneck 30.0853 -4.54859 6.6745
head 13.3058 -2.95198 4.63746
rclavicle -2.52705e-014 -2.70347e-014
rhumerus -29.0564 0.875525 -86.2709
rradius 39.899
rwrist -2.4958
rhand -23.2241 15.1104
rfingers 7.12502
rthumb 3.22672 -14.845
lclavicle -2.52705e-014 -2.70347e-014
lhumerus -38.2588 13.2692 82.3421
lradius 25.615
lwrist -6.91154
lhand -9.90642 27.7302
lfingers 7.12502
lthumb 16.0738 57.0836
rfemur -5.92102 -0.715799 20.6449
rtibia 33.6716
rfoot -20.9394 -6.3671
rtoes -11.878
lfemur -3.60022 1.00975 -20.0585
ltibia 29.6017
lfoot -18.2751 -6.75571
ltoes -10.6592
1397
root 0.066192 17.8739 -17.6986 177.411 -184.314 -180.223
lowerback 8.68947 1.58563 -3.70363
upperback 0.474397 1.85746 2.34335
thorax -4.58119 1.02243 4.30127
lowerneck -15.2943 -4.90688 -16.0398
upperneck 29.9845 -4.53629 6.88124
head 13.2021 -2.92797 4.73304
rclavicle 1.86485e-014 1.98785e-015
rhumerus -29.27 1.44927 -86.6047
rradius 39.7418
rwrist -2.54003
rhand -23.2395 15.6703
rfingers 7.12502
rthumb 3.21176 -14.2852
lclavicle 1.86485e-014 1.98785e-015
lhumerus -38.2983 13.5116 82.1169
lradius 25.6827
lwrist -6.26656
lhand -10.5814 27.2754
lfingers 7.12502
lthumb 15.4237 56.68
rfemur -5.7844 -0.984138 20.6348
rtibia 33.5679
rfoot -20.855 -6.24635
rtoes -12.6368
lfemur -3.53782 0.912131 -20.0226
ltibia 29.5718
lfoot -18.2691 -6.66282
ltoes -10.7523
1398
root 0.0671 17.873 -17.6872 177.395 -184.416 -180.272
lowerback 8.4585 1.58838 -3.63732
upperback 0.506152 1.8736 2.32465
thorax -4.41713 1.02485 4.24605
lowerneck -15.3249 -4.90702 -16.1341
upperneck 29.9624 -4.58778 7.14633
head 13.2143 -2.92658 4.84823
rclavicle -1.43498e-014 1.19271e-015
rhumerus -29.1515 2.08447 -86.9059
rradius 39.563
rwrist -2.53391
rhand -23.0457 15.7724
rfingers 7.12502
rthumb 3.39897 -14.1803
lclavicle -1.43498e-014 1.19271e-015
lhumerus -38.2534 13.5523 82.0652
lradius 26.0713
lwrist -5.43017
lhand -10.8188 27.145
lfingers 7.12502
lthumb 15.1951 56.567
rfemur -5.62631 -1.35728 20.6131
rtibia 33.4338
rfoot -20.7307 -5.98757
rtoes -12.7199
lfemur -3.46657 0.864916 -19.972
ltibia 29.5318
lfoot -18.3084 -6.63923
ltoes -11.1193
1399
root 0.0632819 17.873 -17.678 177.352 -184.661 -180.255
lowerback 8.37736 1.55084 -3.6643
upperback 0.567318 1.82204 2.29405
thorax -4.30216 0.99592 4.23762
lowerneck -15.6213 -5.01548 -16.2638
upperneck 30.0864 -4.73411 7.38468
head 13.362 -2.97558 4.94715
rclavicle -2.44878e-014 4.77083e-015
rhumerus -28.9929 2.64641 -87.1792
rradius 39.5348
rwrist -2.44026
rhand -22.9021 15.7156
rfingers 7.12502
rthumb 3.53762 -14.2348
lclavicle -2.44878e-014 4.77083e-015
lhumerus -38.0613 13.8359 81.9404
lradius 26.3094
lwrist -5.14295
lhand -10.8482 27.3376
lfingers 7.12502
lthumb 15.1667 56.7618
rfemur -5.45042 -1.6321 20.5732
rtibia 33.3029
rfoot -20.6895 -5.9081
rtoes -12.509
lfemur -3.33947 0.774905 -19.9582
ltibia 29.4502
lfoot -18.3554 -6.81477
ltoes -11.1504
1400
root 0.0580722 17.875 -17.6663 177.263 -184.795 -180.302
lowerback 8.40423 1.55643 -3.63628
upperback 0.536103 1.83016 2.26731
thorax -4.34886 1.00068 4.19183
lowerneck -15.6662 -5.07874 -16.253
upperneck 30.093 -4.84457 7.4521
head 13.392 -3.01392 4.95458
rclavicle -2.77056e-015 7.95139e-016
rhumerus -29.0813 3.1269 -87.4486
rradius 39.4724
rwrist -2.16715
rhand -22.8736 15.7664
rfingers 7.12502
rthumb 3.56521 -14.1835
lclavicle -2.77056e-015 7.95139e-016
lhumerus -38.0863 14.2666 81.6293
lradius 26.506
lwrist -5.10508
lhand -10.6979 27.4634
lfingers 7.12502
lthumb 15.3115 56.8766
rfemur -5.27025 -1.71226 20.6409
rtibia 33.1956
rfoot -20.7648 -5.98814
rtoes -12.7002
lfemur -3.13238 0.646702 -19.8847
ltibia 29.3141
lfoot -18.3785 -6.85787
ltoes -11.1399
1401
root 0.0542744 17.8748 -17.6466 177.185 -184.719 -180.288
lowerback 8.2956 1.64167 -3.68028
upperback 0.505068 1.94117 2.22934
thorax -4.33178 1.05648 4.16464
lowerneck -15.4766 -5.10339 -16.1552
upperneck 29.9033 -4.92609 7.40923
head 13.2779 -3.04047 4.9002
rclavicle 1.00635e-014 4.77083e-015
rhumerus -29.2676 3.45708 -87.664
rradius 39.2837
rwrist -1.55922
rhand -22.9044 16.2425
rfingers 7.12502
rthumb 3.53544 -13.7079
lclavicle 1.00635e-014 4.77083e-015
lhumerus -38.1644 14.6672 81.31
lradius 26.723
lwrist -4.73557
lhand -10.4441 26.5619
lfingers 7.12502
lthumb 15.556 55.9563
rfemur -5.07938 -1.71536 20.6261
rtibia 33.0946
rfoot -20.8805 -5.87027
rtoes -12.8084
lfemur -2.8953 0.558092 -19.9086
ltibia 29.1614
lfoot -18.3944 -6.66434
ltoes -11.2891
